<svg width="60" height="73" viewBox="0 0 60 73" fill="none" xmlns="http://www.w3.org/2000/svg">
<g clip-path="url(#clip0_1118_477)">
<path d="M30.9629 -2.54549e-05C33.0809 0.647003 34.5863 1.99815 35.0764 4.37693C35.2514 5.23329 35.1639 6.16577 35.1114 7.04116C35.0764 7.45983 35.1289 7.68819 35.4615 7.91655C40.2927 10.9424 45.1064 13.9682 49.9201 16.994C50.2877 17.2223 50.4977 17.0701 50.7603 16.8227C53.8936 13.7969 58.6722 15.4525 59.6175 19.8866C60.2126 22.665 58.7423 25.5766 56.2041 26.5472C55.6265 26.7755 55.4339 27.061 55.4515 27.727C55.469 33.5693 55.469 39.4116 55.4515 45.2539C55.4515 45.8629 55.609 46.1673 56.1691 46.3767C58.1821 47.1188 59.6 49.1741 59.705 51.3055C59.8275 53.9126 58.8473 55.8728 56.7118 57.0526C54.7513 58.1374 52.4582 57.7568 50.8128 56.1202C50.4452 55.7586 50.2001 55.7586 49.7975 56.006C45.0889 58.9747 40.3977 61.9244 35.6715 64.8741C35.2164 65.1595 35.0414 65.4069 35.1639 66.0539C35.7591 69.3842 33.6235 72.6003 30.6128 72.9619C27.4095 73.3615 24.6263 70.7354 24.5563 67.2528C24.5563 66.8532 24.5563 66.4345 24.6788 66.0539C24.8889 65.4259 24.6263 65.1595 24.1712 64.8741C19.7426 62.1147 15.2965 59.3553 10.9029 56.5198C9.95768 55.9108 9.36253 55.7966 8.38229 56.5959C6.63186 58.0422 4.61886 58.0232 2.71089 56.7862C0.732896 55.5112 -0.124816 53.513 0.155253 51.0581C0.400314 48.7935 1.59061 47.195 3.55109 46.3957C4.19875 46.1293 4.3913 45.8058 4.3913 45.0636C4.35629 39.2974 4.3738 33.5313 4.3913 27.7651C4.3913 27.1181 4.26877 26.7565 3.63862 26.5281C1.66063 25.805 0.242775 23.7307 0.155253 21.6374C0.0502274 18.9922 1.1355 16.8988 3.1835 15.8331C5.12648 14.8245 7.41955 15.1671 9.02995 16.7656C9.41505 17.1462 9.67761 17.1462 10.0977 16.8798C14.7714 13.9301 19.4625 10.9804 24.1712 8.04977C24.6613 7.74528 24.8189 7.45983 24.6963 6.8128C24.1712 3.86311 25.6941 1.12276 28.3372 0.171247C28.5298 0.0951257 28.7048 0.038035 28.8974 -0.0380859C29.5625 -2.54549e-05 30.2627 -2.54549e-05 30.9629 -2.54549e-05ZM6.49182 36.4619C6.49182 39.4306 6.50933 42.3993 6.47432 45.3681C6.47432 45.9009 6.64936 46.1102 7.10447 46.3386C7.80465 46.6812 8.46981 47.1379 9.09997 47.6517C9.39754 47.8801 9.57259 47.9562 9.88766 47.7468C10.7279 47.195 11.5856 46.6621 12.4433 46.1293C13.1785 45.6726 13.7736 45.7867 14.1062 46.3957C14.4388 47.0237 14.2112 47.6327 13.4936 48.1084C12.6709 48.6413 11.8306 49.1551 10.9904 49.6689C10.6754 49.8592 10.5703 50.0685 10.6228 50.5062C10.7104 51.3816 10.7104 52.2951 10.6228 53.1705C10.5878 53.6082 10.6579 53.8175 10.9904 54.0268C15.8216 57.0526 20.6353 60.0784 25.449 63.1043C25.7291 63.2755 25.9041 63.2565 26.2017 63.0472C26.8669 62.5333 27.5845 62.0576 28.3197 61.677C28.7048 61.4867 28.8449 61.2774 28.8449 60.8397C28.8274 59.812 28.8274 58.8034 28.8449 57.7758C28.8624 56.8623 29.3 56.2724 29.9476 56.3105C30.5778 56.3295 30.9804 56.8814 30.9804 57.7758C30.9979 58.8034 30.9979 59.812 30.9804 60.8397C30.9629 61.2774 31.1029 61.4867 31.488 61.677C32.2232 62.0576 32.9234 62.5333 33.606 63.0472C33.8861 63.2565 34.0611 63.3136 34.3587 63.1233C39.1899 60.0784 44.0386 57.0336 48.8698 54.0078C49.1849 53.7985 49.2024 53.5891 49.1849 53.2085C49.1149 52.3141 49.0974 51.4197 49.1849 50.5253C49.2199 50.0876 49.1499 49.8782 48.8173 49.6879C48.0121 49.2122 47.2244 48.6984 46.4367 48.2036C45.614 47.6898 45.3689 47.0808 45.7015 46.4338C46.0341 45.7867 46.6468 45.7106 47.4695 46.2054C48.2747 46.7192 49.0974 47.214 49.9026 47.7468C50.2001 47.9371 50.3927 47.9371 50.7078 47.6898C51.3729 47.1759 52.0906 46.7192 52.8258 46.3196C53.1584 46.1293 53.3509 45.9961 53.3509 45.5584C53.3334 39.5258 53.3334 33.4932 53.3509 27.4606C53.3509 27.0419 53.1934 26.8707 52.8433 26.6804C52.1081 26.2998 51.3904 25.824 50.7253 25.3292C50.4277 25.1009 50.2352 25.0438 49.9376 25.2531C49.0974 25.805 48.2397 26.3378 47.382 26.8516C46.6468 27.3084 46.0516 27.1942 45.719 26.5852C45.3865 25.9763 45.614 25.3483 46.3317 24.8915C47.1719 24.3397 48.0296 23.8068 48.8873 23.293C49.2024 23.1027 49.2549 22.8934 49.2199 22.4937C49.1499 21.5993 49.1324 20.7049 49.2199 19.8105C49.2549 19.3728 49.1849 19.1634 48.8523 18.9541C44.0211 15.9283 39.2074 12.9025 34.3937 9.87667C34.0611 9.66734 33.8861 9.76249 33.606 9.99085C32.9584 10.4856 32.2582 10.9424 31.5405 11.3039C31.1554 11.4942 31.0154 11.6845 31.0154 12.1413C31.0329 13.1689 31.0329 14.1775 31.0154 15.2051C30.9979 16.1376 30.5778 16.7085 29.9301 16.6895C29.3 16.6705 28.8974 16.1186 28.8799 15.2242C28.8624 14.1775 28.8624 13.1308 28.8799 12.0842C28.8974 11.6465 28.7048 11.4942 28.3722 11.3039C27.6371 10.9043 26.9194 10.4476 26.2542 9.93376C25.9741 9.72443 25.7991 9.66734 25.519 9.85764C20.6878 12.9025 15.8391 15.9473 11.0079 18.9731C10.6929 19.1634 10.6579 19.3918 10.6929 19.7724C10.7629 20.6668 10.7804 21.5612 10.6929 22.4557C10.6403 22.9124 10.7454 23.1027 11.0605 23.293C11.9182 23.8068 12.7759 24.3587 13.6161 24.8915C14.2813 25.3292 14.4913 25.9572 14.1762 26.5472C13.8611 27.1561 13.266 27.2893 12.5833 26.8707C11.7256 26.3569 10.8679 25.824 10.0277 25.2721C9.67761 25.0438 9.46756 25.0628 9.11747 25.3483C8.50482 25.8621 7.82215 26.2998 7.10447 26.6423C6.66687 26.8516 6.52683 27.08 6.52683 27.5748C6.50933 30.5245 6.49182 33.4932 6.49182 36.4619ZM8.66236 51.8003C8.66236 49.8021 7.26201 48.2987 5.42406 48.2987C3.62111 48.2987 2.15075 49.8782 2.18576 51.8193C2.20326 53.7414 3.69113 55.3589 5.45907 55.3399C7.26201 55.3589 8.67986 53.7985 8.66236 51.8003ZM54.3837 48.3178C52.5457 48.3178 51.1454 49.8211 51.1454 51.8193C51.1454 53.7985 52.5632 55.3589 54.3662 55.3589C56.1341 55.3589 57.6395 53.7414 57.6395 51.8193C57.6395 49.8782 56.2041 48.3178 54.3837 48.3178ZM8.66236 21.0855C8.66236 19.1063 7.227 17.5649 5.42406 17.5649C3.65612 17.5839 2.16825 19.2015 2.18576 21.1235C2.20326 23.0837 3.63862 24.6251 5.45907 24.6251C7.27952 24.6061 8.67986 23.0646 8.66236 21.0855ZM51.1454 21.0665C51.1279 23.0646 52.5282 24.6061 54.3487 24.6061C56.1691 24.6061 57.622 23.0837 57.6395 21.1235C57.657 19.2015 56.1691 17.5649 54.4012 17.5649C52.5982 17.5459 51.1629 19.1063 51.1454 21.0665ZM29.9301 9.24867C31.7506 9.24867 33.1509 7.70722 33.1509 5.72808C33.1509 3.80602 31.6456 2.16942 29.8951 2.18845C28.1272 2.20748 26.6568 3.82505 26.6743 5.76614C26.6743 7.74528 28.0922 9.2677 29.9301 9.24867ZM29.8776 63.6752C28.0572 63.6942 26.6568 65.2166 26.6568 67.2148C26.6568 69.1368 28.1797 70.7734 29.9301 70.7354C31.7156 70.6973 33.1509 69.0988 33.1509 67.1577C33.1334 65.1786 31.7156 63.6752 29.8776 63.6752Z" fill="url(#paint0_linear_1118_477)"/>
<path d="M18.5696 30.4289C18.377 30.1625 18.2195 29.9151 18.0619 29.6677C15.9264 26.4135 16.7841 22.0176 19.9524 19.9623C22.9807 17.9831 26.9541 19.2582 28.547 22.7597C28.7921 23.2736 29.0547 23.3116 29.5273 23.3687C30.595 23.5019 31.1027 23.0452 31.6628 22.0556C33.4132 18.9537 37.2642 18.1354 40.0649 20.0955C42.9181 22.0937 43.7758 26.1852 41.9729 29.2871C41.7453 29.6677 41.5002 30.0293 41.2727 30.3718C41.9554 31.0379 42.6555 31.6469 43.2682 32.3319C44.6335 33.9115 45.3162 35.8335 45.5087 37.9839C45.5262 38.1933 45.5262 38.4026 45.5087 38.631C45.4737 39.297 45.0886 39.7347 44.5635 39.7918C43.9684 39.8489 43.5482 39.4683 43.4257 38.7642C43.3382 38.2123 43.3382 37.6224 43.2157 37.0705C42.743 34.863 41.5528 33.2264 39.6973 32.2178C39.3997 32.0655 38.9971 32.0846 38.647 32.1226C37.8243 32.1987 37.0191 32.2939 36.1964 32.4081C35.9864 32.4461 35.6713 32.4842 35.5838 32.6364C35.1637 33.3025 34.8136 34.0066 34.411 34.7488C34.5335 34.8439 34.6736 34.9962 34.8311 35.1104C37.1942 36.9373 38.4195 39.4302 38.6645 42.5512C38.7346 43.4646 38.332 44.0546 37.6493 44.0736C36.9666 44.0926 36.599 43.6169 36.529 42.6463C36.354 39.906 35.1462 37.8317 32.9056 36.5376C32.5905 36.3473 32.1004 36.3283 31.7503 36.4425C30.4725 36.8231 29.2297 36.8421 27.9519 36.4044C27.6543 36.3093 27.2517 36.3283 26.9716 36.4615C24.6611 37.7365 23.4008 39.8108 23.2432 42.6083C23.2082 43.2172 23.1032 43.7501 22.5255 43.9975C21.7379 44.321 21.0552 43.6549 21.1077 42.6083C21.2302 40.2295 22.0004 38.1171 23.5408 36.3854C24.0834 35.7764 24.7136 35.2626 25.3437 34.6917C24.9586 33.9876 24.556 33.2264 24.1359 32.5032C24.0659 32.389 23.8209 32.389 23.6633 32.351C22.7706 32.2368 21.8604 32.1036 20.9677 32.0084C20.7226 31.9894 20.4425 31.9704 20.2325 32.0846C17.9744 33.3215 16.6616 35.3007 16.4515 38.0601C16.364 39.259 16.0139 39.7918 15.2788 39.7347C14.5436 39.6776 14.1935 39.0116 14.316 37.8127C14.6311 34.8439 15.8914 32.4652 18.1495 30.7524C18.272 30.6953 18.412 30.5812 18.5696 30.4289ZM29.8774 25.6523C27.6018 25.6714 25.8689 27.5554 25.8689 30.0293C25.8689 32.5032 27.6543 34.4443 29.9299 34.4253C32.1879 34.4253 33.9559 32.4461 33.9384 29.9532C33.9384 27.5173 32.1529 25.6333 29.8774 25.6523ZM19.0247 25.7665C19.0247 28.2214 20.8101 30.1625 23.0332 30.1815C23.5233 30.1815 23.7158 30.0483 23.7684 29.4774C23.9609 27.4412 24.8011 25.7665 26.359 24.6057C26.8316 24.2441 26.7966 23.9586 26.5515 23.5209C25.6238 21.8273 23.7333 20.9899 21.9654 21.5228C20.18 22.0366 19.0247 23.7112 19.0247 25.7665ZM36.1964 21.3705C35.1287 21.3896 33.9559 22.1888 33.1682 23.6922C33.0106 23.9967 32.9756 24.2251 33.2907 24.4534C34.9711 25.6523 35.8463 27.3841 36.0564 29.5345C36.1089 30.0293 36.3015 30.1625 36.7216 30.1625C38.9796 30.2006 40.7826 28.2404 40.8001 25.7475C40.8001 23.2355 39.0496 21.3515 36.1964 21.3705Z" fill="url(#paint1_linear_1118_477)"/>
<path d="M29.8771 53.8935C27.2164 53.8935 24.5557 53.8935 21.8951 53.8935C21.3349 53.8935 20.8973 53.7222 20.7048 53.1132C20.4947 52.4852 20.8273 51.8192 21.4225 51.686C21.755 51.6099 22.1226 51.5908 22.4552 51.5908C27.4089 51.5908 32.3627 51.5908 37.3164 51.5908C37.614 51.5908 37.9291 51.6098 38.2266 51.6479C38.8218 51.7431 39.1894 52.2188 39.1544 52.8088C39.1193 53.3987 38.7167 53.8364 38.1216 53.8744C37.5089 53.9125 36.8963 53.8935 36.2836 53.8935C34.1656 53.8935 32.0301 53.8935 29.8771 53.8935Z" fill="url(#paint2_linear_1118_477)"/>
<path d="M36.6864 47.4232C37.1415 47.4232 37.5966 47.4041 38.0517 47.4232C38.7169 47.4612 39.172 47.956 39.172 48.565C39.172 49.1739 38.7169 49.6878 38.0692 49.7258C37.1415 49.7639 36.1962 49.7639 35.2685 49.7258C34.5858 49.7068 34.1832 49.212 34.2007 48.546C34.2182 47.918 34.6033 47.4803 35.251 47.4232C35.7236 47.3851 36.2137 47.4232 36.6864 47.4232Z" fill="url(#paint3_linear_1118_477)"/>
<path d="M21.703 47.4229C22.2457 47.4229 22.7358 47.9747 22.7358 48.5837C22.7358 49.1927 22.2282 49.7065 21.6855 49.7065C21.1429 49.7065 20.6353 49.1356 20.6528 48.5456C20.6353 47.9557 21.1604 47.4229 21.703 47.4229Z" fill="url(#paint4_linear_1118_477)"/>
<path d="M25.116 47.4233C25.6586 47.4424 26.1488 47.9943 26.1312 48.6032C26.1137 49.2122 25.6061 49.726 25.046 49.707C24.5033 49.6879 24.0132 49.117 24.0307 48.5271C24.0657 47.9372 24.5909 47.4043 25.116 47.4233Z" fill="url(#paint5_linear_1118_477)"/>
<path d="M28.4245 49.7066C27.8818 49.6685 27.4092 49.0786 27.4442 48.4887C27.4967 47.8797 28.0219 47.3849 28.5645 47.423C29.1246 47.48 29.5797 48.0319 29.5447 48.6409C29.4922 49.2499 28.9671 49.7637 28.4245 49.7066Z" fill="url(#paint6_linear_1118_477)"/>
</g>
<defs>
<linearGradient id="paint0_linear_1118_477" x1="29.9223" y1="-19.4061" x2="29.9223" y2="84.0548" gradientUnits="userSpaceOnUse">
<stop stop-color="#B57E10"/>
<stop offset="0.1507" stop-color="#B57E10"/>
<stop offset="0.4638" stop-color="#E5C35C"/>
<stop offset="0.6129" stop-color="#F9DF7B"/>
<stop offset="0.7204" stop-color="#FFF3A6"/>
<stop offset="0.8387" stop-color="#F9DF7B"/>
<stop offset="1" stop-color="#B57E10"/>
</linearGradient>
<linearGradient id="paint1_linear_1118_477" x1="29.9087" y1="-19.4065" x2="29.9087" y2="84.0544" gradientUnits="userSpaceOnUse">
<stop stop-color="#B57E10"/>
<stop offset="0.1507" stop-color="#B57E10"/>
<stop offset="0.4638" stop-color="#E5C35C"/>
<stop offset="0.6129" stop-color="#F9DF7B"/>
<stop offset="0.7204" stop-color="#FFF3A6"/>
<stop offset="0.8387" stop-color="#F9DF7B"/>
<stop offset="1" stop-color="#B57E10"/>
</linearGradient>
<linearGradient id="paint2_linear_1118_477" x1="29.9102" y1="-19.4063" x2="29.9102" y2="84.0547" gradientUnits="userSpaceOnUse">
<stop stop-color="#B57E10"/>
<stop offset="0.1507" stop-color="#B57E10"/>
<stop offset="0.4638" stop-color="#E5C35C"/>
<stop offset="0.6129" stop-color="#F9DF7B"/>
<stop offset="0.7204" stop-color="#FFF3A6"/>
<stop offset="0.8387" stop-color="#F9DF7B"/>
<stop offset="1" stop-color="#B57E10"/>
</linearGradient>
<linearGradient id="paint3_linear_1118_477" x1="36.6894" y1="-19.4062" x2="36.6894" y2="84.0546" gradientUnits="userSpaceOnUse">
<stop stop-color="#B57E10"/>
<stop offset="0.1507" stop-color="#B57E10"/>
<stop offset="0.4638" stop-color="#E5C35C"/>
<stop offset="0.6129" stop-color="#F9DF7B"/>
<stop offset="0.7204" stop-color="#FFF3A6"/>
<stop offset="0.8387" stop-color="#F9DF7B"/>
<stop offset="1" stop-color="#B57E10"/>
</linearGradient>
<linearGradient id="paint4_linear_1118_477" x1="21.6822" y1="-19.4067" x2="21.6822" y2="84.0544" gradientUnits="userSpaceOnUse">
<stop stop-color="#B57E10"/>
<stop offset="0.1507" stop-color="#B57E10"/>
<stop offset="0.4638" stop-color="#E5C35C"/>
<stop offset="0.6129" stop-color="#F9DF7B"/>
<stop offset="0.7204" stop-color="#FFF3A6"/>
<stop offset="0.8387" stop-color="#F9DF7B"/>
<stop offset="1" stop-color="#B57E10"/>
</linearGradient>
<linearGradient id="paint5_linear_1118_477" x1="25.0861" y1="-19.4062" x2="25.0861" y2="84.0549" gradientUnits="userSpaceOnUse">
<stop stop-color="#B57E10"/>
<stop offset="0.1507" stop-color="#B57E10"/>
<stop offset="0.4638" stop-color="#E5C35C"/>
<stop offset="0.6129" stop-color="#F9DF7B"/>
<stop offset="0.7204" stop-color="#FFF3A6"/>
<stop offset="0.8387" stop-color="#F9DF7B"/>
<stop offset="1" stop-color="#B57E10"/>
</linearGradient>
<linearGradient id="paint6_linear_1118_477" x1="28.4912" y1="-19.4066" x2="28.4912" y2="84.0545" gradientUnits="userSpaceOnUse">
<stop stop-color="#B57E10"/>
<stop offset="0.1507" stop-color="#B57E10"/>
<stop offset="0.4638" stop-color="#E5C35C"/>
<stop offset="0.6129" stop-color="#F9DF7B"/>
<stop offset="0.7204" stop-color="#FFF3A6"/>
<stop offset="0.8387" stop-color="#F9DF7B"/>
<stop offset="1" stop-color="#B57E10"/>
</linearGradient>
<clipPath id="clip0_1118_477">
<rect width="59.6373" height="73" fill="white" transform="translate(0.102539)"/>
</clipPath>
</defs>
</svg>
