<svg width="536" height="363" viewBox="0 0 536 363" fill="none" xmlns="http://www.w3.org/2000/svg">
<g opacity="0.02">
<path d="M278.141 219.803H256.992L262.839 223.448V306.579H272.294V223.448L278.141 219.803Z" fill="#15181B"/>
<path d="M221.731 172.546H200.602L206.449 176.192V259.303H215.904V176.192L221.731 172.546Z" fill="#15181B"/>
<path d="M165.34 219.803H144.212L150.038 223.448V306.579H159.494V223.448L165.34 219.803Z" fill="#15181B"/>
<path d="M334.531 219.803H313.403L319.249 223.448V306.579H328.685V223.448L334.531 219.803Z" fill="#15181B"/>
<path d="M390.942 219.803H369.793L375.639 223.448V306.579H385.095V223.448L390.942 219.803Z" fill="#15181B"/>
<path d="M21.1287 245.565H0L5.84669 249.191V346.865L10.5644 362.093L15.3022 346.865V249.191L21.1287 245.565Z" fill="#15181B"/>
<path d="M59.3338 245.565H38.2051L44.0518 249.191V346.865L48.7695 362.093L53.5073 346.865V249.191L59.3338 245.565Z" fill="#15181B"/>
<path d="M97.5389 245.565H76.4102L82.2569 249.191V346.865L86.9745 362.093L91.7124 346.865V249.191L97.5389 245.565Z" fill="#15181B"/>
<path d="M459.59 245.565H438.461L444.308 249.191V346.865L449.025 362.093L453.763 346.865V249.191L459.59 245.565Z" fill="#15181B"/>
<path d="M497.795 245.565H476.666L482.513 249.191V346.865L487.231 362.093L491.968 346.865V249.191L497.795 245.565Z" fill="#15181B"/>
<path d="M536 245.565H514.871L520.718 249.191V346.865L525.436 362.093L530.173 346.865V249.191L536 245.565Z" fill="#15181B"/>
<path d="M408.865 313.932H127.135V276.163H408.845V313.932H408.865ZM136.248 304.847H399.772V285.268H136.248V304.847Z" fill="#15181B"/>
<path d="M408.865 363H127.135V325.232H408.845V363H408.865ZM136.248 353.915H399.772V334.336H136.248V353.915Z" fill="#15181B"/>
<path d="M408.865 264.601H127.135V226.832H408.845V264.601H408.865ZM136.248 255.516H399.772V235.937H136.248V255.516Z" fill="#15181B"/>
<path d="M390.216 123.478H381.123V40.8504H355.216V89.0731H346.124V31.7658H390.216V123.478Z" fill="#15181B"/>
<path d="M476.505 208.301H428.965L268 47.4976L107.055 208.301H59.5153L268 0L476.485 208.301H476.505ZM454.55 199.216L268 12.8513L81.4706 199.216H103.285L268 34.6463L432.715 199.216H454.55Z" fill="#15181B"/>
<path d="M234.755 107.101V173.533H301.245V107.101H234.755ZM292.153 135.785H272.556V116.206H292.153V135.785ZM263.444 116.206V135.785H243.847V116.206H263.444ZM243.847 144.89H263.444V164.469H243.847V144.89ZM272.556 164.469V144.89H292.153V164.469H272.556Z" fill="#15181B"/>
</g>
</svg>
